RobotoSerifMicro-Hairline Italic 01.ufo
<glyph name="asterisk" format="2">
  <advance width="512"/>
  <unicode hex="002A"/>
  <outline>
    <contour>
      <point x="320" y="589" type="line"/>
      <point x="340" y="667"/>
      <point x="367" y="703"/>
      <point x="384" y="777" type="curve"/>
      <point x="323" y="777" type="line"/>
      <point x="306" y="710"/>
      <point x="313" y="670"/>
      <point x="293" y="593" type="curve"/>
    </contour>
    <contour>
      <point x="286" y="590" type="line"/>
      <point x="223" y="637"/>
      <point x="205" y="669"/>
      <point x="151" y="711" type="curve"/>
      <point x="110" y="663" type="line"/>
      <point x="161" y="621"/>
      <point x="204" y="615"/>
      <point x="267" y="567" type="curve"/>
    </contour>
    <contour>
      <point x="326" y="584" type="curve"/>
      <point x="334" y="559" type="line"/>
      <point x="413" y="589"/>
      <point x="453" y="593"/>
      <point x="524" y="621" type="curve"/>
      <point x="505" y="673" type="line"/>
      <point x="436" y="648"/>
      <point x="406" y="614"/>
    </contour>
    <contour>
      <point x="307" y="527" type="curve"/>
      <point x="280" y="531" type="line"/>
      <point x="260" y="453"/>
      <point x="233" y="417"/>
      <point x="216" y="343" type="curve"/>
      <point x="277" y="343" type="line"/>
      <point x="294" y="410"/>
      <point x="287" y="450"/>
    </contour>
    <contour>
      <point x="274" y="535" type="curve"/>
      <point x="265" y="560" type="line"/>
      <point x="184" y="530"/>
      <point x="144" y="531"/>
      <point x="75" y="505" type="curve"/>
      <point x="93" y="452" type="line"/>
      <point x="161" y="476"/>
      <point x="191" y="505"/>
    </contour>
    <contour>
      <point x="314" y="530" type="line"/>
      <point x="373" y="482"/>
      <point x="392" y="448"/>
      <point x="445" y="406" type="curve"/>
      <point x="486" y="455" type="line"/>
      <point x="435" y="496"/>
      <point x="392" y="504"/>
      <point x="332" y="551" type="curve"/>
    </contour>
  </outline>
</glyph>
<glyph name="zero" format="2">
  <advance width="560"/>
  <unicode hex="0030"/>
  <guideline x="0" y="649.0" angle="0" identifier="1LR1th2Iog"/>
  <guideline x="0" y="606.0" angle="0" identifier="UzWLrMwXHE"/>
  <guideline x="0" y="-11.0" angle="0" identifier="GSVg4rn1aW"/>
  <guideline x="0" y="32.0" angle="0" identifier="bAjT4dkp1M"/>
  <outline>
    <contour>
      <point x="526" y="434" type="curve" smooth="yes"/>
      <point x="526.0" y="544.0"/>
      <point x="471" y="649"/>
      <point x="328" y="649" type="curve" smooth="yes"/>
      <point x="112" y="649"/>
      <point x="34" y="357"/>
      <point x="34" y="204" type="curve" smooth="yes"/>
      <point x="34" y="94.0"/>
      <point x="90" y="-11"/>
      <point x="233" y="-11" type="curve" smooth="yes"/>
      <point x="449" y="-11"/>
      <point x="526" y="281"/>
    </contour>
    <contour>
      <point x="111" y="350" type="curve" smooth="yes"/>
      <point x="155" y="520"/>
      <point x="215" y="606"/>
      <point x="328" y="606" type="curve" smooth="yes"/>
      <point x="424" y="606"/>
      <point x="474" y="553"/>
      <point x="474" y="445" type="curve" smooth="yes"/>
      <point x="474.0" y="404.0"/>
      <point x="465" y="350"/>
      <point x="449" y="288" type="curve" smooth="yes"/>
      <point x="405" y="118"/>
      <point x="346" y="32"/>
      <point x="233" y="32" type="curve" smooth="yes"/>
      <point x="137" y="32"/>
      <point x="86" y="85"/>
      <point x="86" y="193" type="curve" smooth="yes"/>
      <point x="86" y="234"/>
      <point x="95" y="288"/>
    </contour>
  </outline>
</glyph>
<glyph name="one" format="2">
  <advance width="560"/>
  <unicode hex="0031"/>
  <outline>
    <contour>
      <point x="283" y="76.0" type="curve" smooth="yes"/>
      <point x="424" y="639.0" type="line"/>
      <point x="383" y="639.0" type="line"/>
      <point x="336" y="558.0"/>
      <point x="275" y="536.0"/>
      <point x="154" y="533.0" type="curve"/>
      <point x="142" y="484.0" type="line"/>
      <point x="254" y="484.0"/>
      <point x="342" y="522.0"/>
      <point x="375" y="594.0" type="curve"/>
      <point x="370" y="597.0"/>
      <point x="368" y="580.0"/>
      <point x="359" y="580.0" type="curve"/>
      <point x="233" y="76.0" type="line" smooth="yes"/>
      <point x="226" y="47.0"/>
      <point x="184" y="40.0"/>
      <point x="109" y="40.0" type="curve" smooth="yes"/>
      <point x="47" y="40.0" type="line"/>
      <point x="37" y="0.0" type="line"/>
      <point x="428" y="0.0" type="line"/>
      <point x="438" y="40.0" type="line"/>
      <point x="399" y="40.0" type="line"/>
      <point x="318" y="40.0"/>
      <point x="276" y="47.0"/>
    </contour>
  </outline>
</glyph>
<glyph name="two" format="2">
  <advance width="560"/>
  <unicode hex="0032"/>
  <guideline x="0" y="601" angle="0" identifier="w1UbD7k1NC"/>
  <guideline x="0" y="649" angle="0" identifier="Fn2iAKXaou"/>
  <outline>
    <contour>
      <point x="258" y="42" type="line" smooth="yes"/>
      <point x="340.0" y="42.0"/>
      <point x="376" y="49"/>
      <point x="387" y="83" type="curve" smooth="yes"/>
      <point x="422" y="188" type="line"/>
      <point x="468" y="188" type="line"/>
      <point x="423" y="0" type="line"/>
      <point x="-7" y="0" type="line"/>
      <point x="6" y="54" type="line"/>
      <point x="320" y="273"/>
      <point x="455" y="347"/>
      <point x="455" y="497" type="curve" smooth="yes"/>
      <point x="455" y="578"/>
      <point x="401" y="601"/>
      <point x="318" y="601" type="curve" smooth="yes"/>
      <point x="250" y="601"/>
      <point x="196" y="570"/>
      <point x="165" y="550" type="curve"/>
      <point x="171" y="566"/>
      <point x="207" y="594"/>
      <point x="204" y="582" type="curve" smooth="yes"/>
      <point x="165" y="427" type="line"/>
      <point x="102" y="427" type="line"/>
      <point x="143" y="591" type="line"/>
      <point x="173" y="611"/>
      <point x="244" y="649"/>
      <point x="326" y="649" type="curve" smooth="yes"/>
      <point x="446" y="649"/>
      <point x="511" y="601"/>
      <point x="511" y="497" type="curve" smooth="yes"/>
      <point x="511" y="326"/>
      <point x="310" y="221"/>
      <point x="34" y="31" type="curve"/>
      <point x="15" y="17"/>
      <point x="16" y="36"/>
      <point x="31" y="42" type="curve"/>
    </contour>
  </outline>
</glyph>
<glyph name="seven" format="2">
  <advance width="560"/>
  <unicode hex="0037"/>
  <outline>
    <contour>
      <point x="297" y="621.0" type="line" smooth="yes"/>
      <point x="211.0" y="621.0"/>
      <point x="173" y="614"/>
      <point x="162" y="578.0" type="curve" smooth="yes"/>
      <point x="126" y="462.0" type="line"/>
      <point x="80" y="462.0" type="line"/>
      <point x="130" y="667.0" type="line"/>
      <point x="592" y="667.0" type="line"/>
      <point x="579" y="616.0" type="line"/>
      <point x="406" y="459.0"/>
      <point x="259" y="273.0"/>
      <point x="178" y="-46.0" type="curve"/>
      <point x="117" y="-46.0" type="line"/>
      <point x="209" y="289.0"/>
      <point x="406" y="510.0"/>
      <point x="560" y="638.0" type="curve"/>
      <point x="560" y="621.0" type="line"/>
    </contour>
  </outline>
</glyph>
<glyph name="less" format="2">
  <advance width="560"/>
  <unicode hex="003C"/>
  <outline>
    <contour>
      <point x="475" y="554" type="line"/>
      <point x="85" y="365" type="line"/>
      <point x="85" y="324" type="line"/>
      <point x="105" y="328" type="line"/>
      <point x="475" y="504" type="line"/>
    </contour>
    <contour>
      <point x="475" y="171" type="line"/>
      <point x="106" y="348" type="line"/>
      <point x="85" y="332" type="line"/>
      <point x="85" y="305" type="line"/>
      <point x="475" y="118" type="line"/>
    </contour>
  </outline>
</glyph>
<glyph name="A" format="2">
  <advance width="698"/>
  <unicode hex="0041"/>
  <anchor x="340" y="721.0" name="top"/>
  <anchor x="553" y="0.0" name="right"/>
  <anchor x="340" y="0.0" name="bottom"/>
  <outline>
    <contour>
      <point x="185" y="290" type="line"/>
      <point x="160" y="247" type="line"/>
      <point x="494" y="247" type="line"/>
      <point x="486" y="290" type="line"/>
    </contour>
    <contour>
      <point x="438" y="712" type="line"/>
      <point x="492" y="59" type="line"/>
      <point x="490" y="52"/>
      <point x="455" y="48"/>
      <point x="399" y="48" type="curve" smooth="yes"/>
      <point x="389" y="48" type="line"/>
      <point x="377" y="0" type="line"/>
      <point x="603" y="0" type="line"/>
      <point x="615" y="48" type="line"/>
      <point x="609" y="48" type="line" smooth="yes"/>
      <point x="568" y="48"/>
      <point x="543" y="59"/>
      <point x="539" y="112" type="curve" smooth="yes"/>
      <point x="488" y="722" type="line"/>
      <point x="407" y="722" type="line"/>
      <point x="53" y="112" type="line" smooth="yes"/>
      <point x="22" y="59"/>
      <point x="-8" y="48"/>
      <point x="-49" y="48" type="curve" smooth="yes"/>
      <point x="-55" y="48" type="line"/>
      <point x="-67" y="0" type="line"/>
      <point x="163" y="0" type="line"/>
      <point x="175" y="48" type="line"/>
      <point x="165" y="48" type="line" smooth="yes"/>
      <point x="109" y="48"/>
      <point x="77" y="58"/>
      <point x="81" y="71" type="curve"/>
      <point x="454" y="715" type="line"/>
    </contour>
  </outline>
</glyph>
<glyph name="D" format="2">
  <advance width="747"/>
  <unicode hex="0044"/>
  <guideline x="0" y="710.0" angle="0" identifier="KXBTxSrV6f"/>
  <guideline x="0" y="666.0" angle="0" identifier="nVMJPmkT9g"/>
  <guideline x="0" y="44.0" angle="0" identifier="ReJwkYa0X5"/>
  <anchor x="375" y="741" name="top"/>
  <anchor x="375" y="0" name="bottom"/>
  <outline>
    <contour>
      <point x="127" y="662" type="line"/>
      <point x="138" y="662" type="line" smooth="yes"/>
      <point x="187" y="662"/>
      <point x="221" y="655"/>
      <point x="214" y="626" type="curve" smooth="yes"/>
      <point x="78" y="84" type="line" smooth="yes"/>
      <point x="71" y="55"/>
      <point x="33" y="48"/>
      <point x="-16" y="48" type="curve" smooth="yes"/>
      <point x="-27" y="48" type="line"/>
      <point x="-39" y="0" type="line"/>
      <point x="329" y="0" type="line" smooth="yes"/>
      <point x="573" y="0"/>
      <point x="699" y="212"/>
      <point x="699" y="425" type="curve" smooth="yes"/>
      <point x="699" y="610"/>
      <point x="618" y="710"/>
      <point x="383" y="710" type="curve" smooth="yes"/>
      <point x="139" y="710" type="line"/>
    </contour>
    <contour>
      <point x="388" y="666" type="line" smooth="yes"/>
      <point x="587" y="666"/>
      <point x="643" y="587"/>
      <point x="643" y="425" type="curve" smooth="yes"/>
      <point x="643" y="239"/>
      <point x="549" y="44"/>
      <point x="326" y="44" type="curve" smooth="yes"/>
      <point x="119" y="44" type="line"/>
      <point x="275" y="666" type="line"/>
    </contour>
  </outline>
</glyph>
<glyph name="H" format="2">
  <advance width="811"/>
  <unicode hex="0048"/>
  <anchor x="408" y="741.0" name="top"/>
  <anchor x="408" y="0.0" name="bottom"/>
  <outline>
    <contour>
      <point x="193" y="388" type="line"/>
      <point x="182" y="344" type="line"/>
      <point x="623" y="344" type="line"/>
      <point x="634" y="388" type="line"/>
    </contour>
    <contour>
      <point x="-39" y="0" type="line"/>
      <point x="204" y="0" type="line"/>
      <point x="216" y="48" type="line"/>
      <point x="207" y="48" type="line" smooth="yes"/>
      <point x="169" y="48"/>
      <point x="121" y="51"/>
      <point x="123" y="58" type="curve" smooth="yes"/>
      <point x="272" y="652" type="line" smooth="yes"/>
      <point x="274" y="659"/>
      <point x="323" y="662"/>
      <point x="361" y="662" type="curve" smooth="yes"/>
      <point x="370" y="662" type="line"/>
      <point x="382" y="710" type="line"/>
      <point x="139" y="710" type="line"/>
      <point x="127" y="662" type="line"/>
      <point x="138" y="662" type="line" smooth="yes"/>
      <point x="187" y="662"/>
      <point x="221" y="655"/>
      <point x="214" y="626" type="curve" smooth="yes"/>
      <point x="78" y="84" type="line" smooth="yes"/>
      <point x="71" y="55"/>
      <point x="33" y="48"/>
      <point x="-16" y="48" type="curve" smooth="yes"/>
      <point x="-27" y="48" type="line"/>
    </contour>
    <contour>
      <point x="420" y="0" type="line"/>
      <point x="664" y="0" type="line"/>
      <point x="676" y="48" type="line"/>
      <point x="665" y="48" type="line" smooth="yes"/>
      <point x="616" y="48"/>
      <point x="582" y="55"/>
      <point x="589" y="84" type="curve" smooth="yes"/>
      <point x="725" y="626" type="line" smooth="yes"/>
      <point x="732" y="655"/>
      <point x="770" y="662"/>
      <point x="819" y="662" type="curve" smooth="yes"/>
      <point x="830" y="662" type="line"/>
      <point x="842" y="710" type="line"/>
      <point x="599" y="710" type="line"/>
      <point x="587" y="662" type="line"/>
      <point x="596" y="662" type="line" smooth="yes"/>
      <point x="634" y="662"/>
      <point x="682" y="659"/>
      <point x="680" y="652" type="curve" smooth="yes"/>
      <point x="531" y="58" type="line" smooth="yes"/>
      <point x="529" y="51"/>
      <point x="479" y="48"/>
      <point x="441" y="48" type="curve" smooth="yes"/>
      <point x="432" y="48" type="line"/>
    </contour>
  </outline>
</glyph>
<glyph name="J" format="2">
  <advance width="669"/>
  <unicode hex="004A"/>
  <guideline x="0" y="21" angle="0" identifier="T09tikz1SA"/>
  <guideline x="0" y="-25" angle="0" identifier="7kCaDYotMp"/>
  <anchor x="448.0" y="741" name="top"/>
  <outline>
    <contour>
      <point x="442" y="710" type="line"/>
      <point x="430" y="662" type="line"/>
      <point x="461" y="662" type="line" smooth="yes"/>
      <point x="510" y="662"/>
      <point x="544" y="655"/>
      <point x="537" y="626" type="curve" smooth="yes"/>
      <point x="430" y="197" type="line" smooth="yes"/>
      <point x="397" y="65"/>
      <point x="341" y="21"/>
      <point x="235" y="21" type="curve" smooth="yes"/>
      <point x="155" y="21"/>
      <point x="100" y="42"/>
      <point x="67" y="78" type="curve"/>
      <point x="63" y="68"/>
      <point x="54" y="51"/>
      <point x="84" y="42" type="curve"/>
      <point x="128" y="216" type="line"/>
      <point x="65" y="216" type="line"/>
      <point x="21" y="42" type="line"/>
      <point x="61" y="10"/>
      <point x="127" y="-25"/>
      <point x="233" y="-25" type="curve" smooth="yes"/>
      <point x="364" y="-25"/>
      <point x="441" y="37"/>
      <point x="481" y="197" type="curve" smooth="yes"/>
      <point x="588" y="626" type="line" smooth="yes"/>
      <point x="595" y="655"/>
      <point x="633" y="662"/>
      <point x="682" y="662" type="curve" smooth="yes"/>
      <point x="707" y="662" type="line"/>
      <point x="719" y="710" type="line"/>
    </contour>
  </outline>
</glyph>
<glyph name="K" format="2">
  <advance width="752"/>
  <unicode hex="004B"/>
  <guideline x="330" y="642" angle="90" identifier="wSnEsZQlwI"/>
  <anchor x="411.0" y="741" name="top"/>
  <anchor x="411.0" y="0" name="bottom"/>
  <outline>
    <contour>
      <point x="-24" y="0" type="line"/>
      <point x="219" y="0" type="line"/>
      <point x="231" y="48" type="line"/>
      <point x="222" y="48" type="line" smooth="yes"/>
      <point x="184" y="48"/>
      <point x="136" y="51"/>
      <point x="138" y="58" type="curve" smooth="yes"/>
      <point x="287" y="652" type="line" smooth="yes"/>
      <point x="289" y="659"/>
      <point x="338" y="662"/>
      <point x="376" y="662" type="curve" smooth="yes"/>
      <point x="385" y="662" type="line"/>
      <point x="397" y="710" type="line"/>
      <point x="154" y="710" type="line"/>
      <point x="142" y="662" type="line"/>
      <point x="153" y="662" type="line" smooth="yes"/>
      <point x="202" y="662"/>
      <point x="236" y="655"/>
      <point x="229" y="626" type="curve" smooth="yes"/>
      <point x="93" y="84" type="line" smooth="yes"/>
      <point x="86" y="55"/>
      <point x="48" y="48"/>
      <point x="-1" y="48" type="curve" smooth="yes"/>
      <point x="-12" y="48" type="line"/>
    </contour>
    <contour>
      <point x="404" y="0" type="line"/>
      <point x="665" y="0" type="line"/>
      <point x="677" y="48" type="line"/>
      <point x="659" y="48" type="line" smooth="yes"/>
      <point x="619" y="48"/>
      <point x="598" y="51"/>
      <point x="579" y="74" type="curve" smooth="yes"/>
      <point x="314" y="387" type="line"/>
      <point x="317" y="348" type="line"/>
      <point x="664" y="633" type="line" smooth="yes"/>
      <point x="692" y="656"/>
      <point x="715" y="662"/>
      <point x="747" y="662" type="curve" smooth="yes"/>
      <point x="767" y="662" type="line"/>
      <point x="779" y="710" type="line"/>
      <point x="546" y="710" type="line"/>
      <point x="534" y="662" type="line"/>
      <point x="543" y="662" type="line" smooth="yes"/>
      <point x="585" y="662"/>
      <point x="625" y="658"/>
      <point x="623" y="651" type="curve"/>
      <point x="277" y="366" type="line"/>
      <point x="274" y="355" type="line"/>
      <point x="523" y="58" type="line"/>
      <point x="521" y="51"/>
      <point x="476" y="48"/>
      <point x="435" y="48" type="curve" smooth="yes"/>
      <point x="416" y="48" type="line"/>
    </contour>
  </outline>
</glyph>
<glyph name="L" format="2">
  <advance width="670"/>
  <unicode hex="004C"/>
  <anchor x="399" y="741" name="top"/>
  <anchor x="399" y="0" name="bottom"/>
  <anchor x="494" y="710" name="right"/>
  <anchor x="494" y="410" name="mid"/>
  <outline>
    <contour>
      <point x="397" y="710" type="line"/>
      <point x="385" y="662" type="line"/>
      <point x="364" y="662" type="line" smooth="yes"/>
      <point x="307" y="662"/>
      <point x="272" y="655"/>
      <point x="265" y="626" type="curve" smooth="yes"/>
      <point x="119" y="44" type="line"/>
      <point x="339" y="44" type="line" smooth="yes"/>
      <point x="425" y="44"/>
      <point x="463" y="53"/>
      <point x="476" y="89" type="curve" smooth="yes"/>
      <point x="529" y="240" type="line"/>
      <point x="576" y="240" type="line"/>
      <point x="518" y="0" type="line"/>
      <point x="-39" y="0" type="line"/>
      <point x="-27" y="48" type="line"/>
      <point x="-16" y="48" type="line" smooth="yes"/>
      <point x="33" y="48"/>
      <point x="71" y="55"/>
      <point x="78" y="84" type="curve" smooth="yes"/>
      <point x="214" y="626" type="line" smooth="yes"/>
      <point x="221" y="655"/>
      <point x="187" y="662"/>
      <point x="138" y="662" type="curve" smooth="yes"/>
      <point x="127" y="662" type="line"/>
      <point x="139" y="710" type="line"/>
    </contour>
  </outline>
</glyph>
<glyph name="P" format="2">
  <advance width="650"/>
  <unicode hex="0050"/>
  <guideline x="0" y="710" angle="0" identifier="jSS3uGYsLZ"/>
  <guideline x="0" y="667" angle="0" identifier="6ivIqGfwrT"/>
  <guideline x="0" y="289" angle="0" identifier="gepACu2cuG"/>
  <guideline x="0" y="331" angle="0" identifier="PLsOxEjjnF"/>
  <outline>
    <contour>
      <point x="125" y="58" type="line" smooth="yes"/>
      <point x="123" y="51"/>
      <point x="169" y="48"/>
      <point x="217" y="48" type="curve" smooth="yes"/>
      <point x="233" y="48" type="line"/>
      <point x="221" y="0" type="line"/>
      <point x="-39" y="0" type="line"/>
      <point x="-27" y="48" type="line"/>
      <point x="-16" y="48" type="line" smooth="yes"/>
      <point x="33" y="48"/>
      <point x="71" y="55"/>
      <point x="78" y="84" type="curve" smooth="yes"/>
      <point x="214" y="626" type="line" smooth="yes"/>
      <point x="221" y="655"/>
      <point x="187" y="662"/>
      <point x="138" y="662" type="curve" smooth="yes"/>
      <point x="127" y="662" type="line"/>
      <point x="139" y="710" type="line"/>
      <point x="427" y="710" type="line"/>
      <point x="567" y="710"/>
      <point x="640" y="627"/>
      <point x="640" y="526" type="curve" smooth="yes"/>
      <point x="640" y="385"/>
      <point x="536.0" y="289.0"/>
      <point x="376" y="289" type="curve" smooth="yes"/>
      <point x="157" y="289" type="line"/>
      <point x="167" y="331" type="line"/>
      <point x="381" y="331" type="line" smooth="yes"/>
      <point x="514" y="331"/>
      <point x="584" y="408"/>
      <point x="584" y="526" type="curve" smooth="yes"/>
      <point x="584" y="604"/>
      <point x="533" y="667"/>
      <point x="428" y="667" type="curve"/>
      <point x="277" y="667" type="line"/>
    </contour>
  </outline>
</glyph>
<glyph name="R" format="2">
  <advance width="708"/>
  <unicode hex="0052"/>
  <guideline x="0" y="710.0" angle="0" identifier="y5Ekfxvakm"/>
  <guideline x="0" y="667.0" angle="0" identifier="gCR3uxB5u6"/>
  <guideline x="0" y="310.0" angle="0" identifier="hP4rv40bJv"/>
  <guideline x="0" y="352.0" angle="0" identifier="brReZJLqle"/>
  <anchor x="391.0" y="741" name="top"/>
  <anchor x="391.0" y="0" name="bottom"/>
  <outline>
    <contour>
      <point x="379" y="326" type="line"/>
      <point x="424" y="350" type="line"/>
      <point x="507" y="113" type="line" smooth="yes"/>
      <point x="525" y="62"/>
      <point x="553" y="50"/>
      <point x="603" y="50" type="curve" smooth="yes"/>
      <point x="617" y="50" type="line"/>
      <point x="604" y="0" type="line"/>
      <point x="493" y="0" type="line"/>
    </contour>
    <contour>
      <point x="123" y="58" type="line" smooth="yes"/>
      <point x="121" y="51"/>
      <point x="167" y="48"/>
      <point x="215" y="48" type="curve" smooth="yes"/>
      <point x="232" y="48" type="line"/>
      <point x="220" y="0" type="line"/>
      <point x="-39" y="0" type="line"/>
      <point x="-27" y="48" type="line"/>
      <point x="-16" y="48" type="line" smooth="yes"/>
      <point x="33" y="48"/>
      <point x="71" y="55"/>
      <point x="78" y="84" type="curve" smooth="yes"/>
      <point x="214" y="626" type="line" smooth="yes"/>
      <point x="221" y="655"/>
      <point x="187" y="662"/>
      <point x="138" y="662" type="curve" smooth="yes"/>
      <point x="127" y="662" type="line"/>
      <point x="139" y="710" type="line"/>
      <point x="411" y="710" type="line" smooth="yes"/>
      <point x="555" y="710"/>
      <point x="636" y="650"/>
      <point x="636" y="540" type="curve" smooth="yes"/>
      <point x="636" y="400"/>
      <point x="539" y="329"/>
      <point x="422" y="318" type="curve"/>
      <point x="403" y="313"/>
      <point x="406" y="309"/>
      <point x="403" y="310" type="curve"/>
      <point x="174" y="310" type="line"/>
      <point x="174" y="352" type="line"/>
      <point x="389" y="352" type="line" smooth="yes"/>
      <point x="515" y="352"/>
      <point x="580" y="420"/>
      <point x="580" y="536" type="curve" smooth="yes"/>
      <point x="580" y="624"/>
      <point x="526" y="667"/>
      <point x="415" y="667" type="curve" smooth="yes"/>
      <point x="276" y="667" type="line"/>
    </contour>
  </outline>
</glyph>
<glyph name="T" format="2">
  <advance width="662"/>
  <unicode hex="0054"/>
  <anchor x="423" y="741" name="top"/>
  <anchor x="238" y="0" name="bottom"/>
  <outline>
    <contour>
      <point x="232" y="84" type="line" smooth="yes"/>
      <point x="225" y="55"/>
      <point x="182" y="48"/>
      <point x="133" y="48" type="curve" smooth="yes"/>
      <point x="113" y="48" type="line"/>
      <point x="101" y="0" type="line"/>
      <point x="372" y="0" type="line"/>
      <point x="384" y="48" type="line"/>
      <point x="364" y="48" type="line" smooth="yes"/>
      <point x="315" y="48"/>
      <point x="276" y="55"/>
      <point x="283" y="84" type="curve" smooth="yes"/>
      <point x="429" y="666" type="line"/>
      <point x="517" y="666" type="line" smooth="yes"/>
      <point x="603.0" y="666.0"/>
      <point x="628" y="652"/>
      <point x="621" y="606" type="curve" smooth="yes"/>
      <point x="602" y="487" type="line"/>
      <point x="646" y="487" type="line"/>
      <point x="702" y="710" type="line"/>
      <point x="124" y="710" type="line"/>
      <point x="68" y="487" type="line"/>
      <point x="112" y="487" type="line"/>
      <point x="155" y="606" type="line" smooth="yes"/>
      <point x="172" y="652"/>
      <point x="210.0" y="666.0"/>
      <point x="296" y="666" type="curve" smooth="yes"/>
      <point x="378" y="666" type="line"/>
    </contour>
  </outline>
</glyph>
<glyph name="V" format="2">
  <advance width="705"/>
  <unicode hex="0056"/>
  <outline>
    <contour>
      <point x="297" y="-2" type="line"/>
      <point x="243" y="651" type="line"/>
      <point x="245" y="658"/>
      <point x="280" y="662"/>
      <point x="336" y="662" type="curve" smooth="yes"/>
      <point x="346" y="662" type="line"/>
      <point x="358" y="710" type="line"/>
      <point x="132" y="710" type="line"/>
      <point x="120" y="662" type="line"/>
      <point x="126" y="662" type="line" smooth="yes"/>
      <point x="167" y="662"/>
      <point x="192" y="651"/>
      <point x="196" y="598" type="curve" smooth="yes"/>
      <point x="247" y="-12" type="line"/>
      <point x="328" y="-12" type="line"/>
      <point x="682" y="598" type="line" smooth="yes"/>
      <point x="713" y="651"/>
      <point x="743" y="662"/>
      <point x="784" y="662" type="curve" smooth="yes"/>
      <point x="790" y="662" type="line"/>
      <point x="802" y="710" type="line"/>
      <point x="573" y="710" type="line"/>
      <point x="561" y="662" type="line"/>
      <point x="571" y="662" type="line" smooth="yes"/>
      <point x="627" y="662"/>
      <point x="659" y="652"/>
      <point x="655" y="639" type="curve"/>
      <point x="282" y="-5" type="line"/>
    </contour>
  </outline>
</glyph>
<glyph name="W" format="2">
  <advance width="1040"/>
  <unicode hex="0057"/>
  <guideline x="431" y="89" angle="0" identifier="me1EuVbcUI"/>
  <anchor x="552.0" y="741" name="top"/>
  <outline>
    <contour>
      <point x="132" y="710" type="line"/>
      <point x="120" y="662" type="line"/>
      <point x="126" y="662" type="line" smooth="yes"/>
      <point x="167" y="662"/>
      <point x="196" y="651"/>
      <point x="196" y="598" type="curve" smooth="yes"/>
      <point x="195" y="-12" type="line"/>
      <point x="275" y="-12" type="line"/>
      <point x="636" y="667" type="line"/>
      <point x="615" y="658" type="line"/>
      <point x="638" y="-12" type="line"/>
      <point x="718" y="-12" type="line"/>
      <point x="1012" y="598" type="line" smooth="yes"/>
      <point x="1037" y="651"/>
      <point x="1073" y="662"/>
      <point x="1114" y="662" type="curve" smooth="yes"/>
      <point x="1120" y="662" type="line"/>
      <point x="1132" y="710" type="line"/>
      <point x="905" y="710" type="line"/>
      <point x="893" y="662" type="line"/>
      <point x="903" y="662" type="line" smooth="yes"/>
      <point x="959" y="662"/>
      <point x="991" y="652"/>
      <point x="987" y="639" type="curve"/>
      <point x="678" y="-2" type="line"/>
      <point x="686" y="0" type="line"/>
      <point x="662" y="710" type="line"/>
      <point x="612" y="710" type="line"/>
      <point x="234" y="-3" type="line"/>
      <point x="244" y="-1" type="line"/>
      <point x="244" y="651" type="line"/>
      <point x="246" y="658"/>
      <point x="281" y="662"/>
      <point x="337" y="662" type="curve" smooth="yes"/>
      <point x="347" y="662" type="line"/>
      <point x="359" y="710" type="line"/>
    </contour>
  </outline>
</glyph>
<glyph name="k" format="2">
  <advance width="568"/>
  <unicode hex="006B"/>
  <anchor x="346" y="0.0" name="bottom"/>
  <outline>
    <contour>
      <point x="414" y="67" type="line" smooth="yes"/>
      <point x="422" y="50"/>
      <point x="431" y="45"/>
      <point x="455" y="45" type="curve" smooth="yes"/>
      <point x="516" y="45" type="line"/>
      <point x="508" y="0" type="line"/>
      <point x="444" y="0" type="line" smooth="yes"/>
      <point x="393" y="0"/>
      <point x="381" y="12"/>
      <point x="355" y="65" type="curve" smooth="yes"/>
      <point x="241" y="303" type="line"/>
      <point x="242" y="308" type="line"/>
      <point x="508" y="565" type="line"/>
      <point x="570" y="565" type="line"/>
      <point x="570" y="550" type="line"/>
      <point x="282" y="302" type="line"/>
      <point x="266" y="307"/>
      <point x="278" y="334"/>
      <point x="287" y="328" type="curve"/>
    </contour>
    <contour>
      <point x="233" y="698" type="line" smooth="yes"/>
      <point x="237" y="717"/>
      <point x="212" y="726"/>
      <point x="161" y="737" type="curve" smooth="yes"/>
      <point x="152" y="739" type="line"/>
      <point x="161" y="780" type="line"/>
      <point x="304" y="780" type="line"/>
      <point x="110" y="0" type="line"/>
      <point x="60" y="0" type="line"/>
    </contour>
  </outline>
</glyph>
<glyph name="l" format="2">
  <advance width="332"/>
  <unicode hex="006C"/>
  <guideline x="0" y="780" angle="0" identifier="PkZmCR7r21"/>
  <anchor x="168" y="746" name="top"/>
  <anchor x="286" y="735" name="right"/>
  <anchor x="345" y="391.0" name="mid"/>
  <anchor x="172" y="0.0" name="bottom"/>
  <outline>
    <contour>
      <point x="110" y="180" type="line" smooth="yes"/>
      <point x="95" y="118"/>
      <point x="86" y="84"/>
      <point x="86" y="55" type="curve" smooth="yes"/>
      <point x="86" y="19"/>
      <point x="113" y="0"/>
      <point x="154" y="0" type="curve" smooth="yes"/>
      <point x="247" y="0" type="line"/>
      <point x="255" y="45" type="line"/>
      <point x="169" y="45" type="line" smooth="yes"/>
      <point x="149" y="45"/>
      <point x="137" y="52"/>
      <point x="137" y="69" type="curve" smooth="yes"/>
      <point x="137" y="82"/>
      <point x="139" y="99"/>
      <point x="153" y="155" type="curve" smooth="yes"/>
      <point x="304" y="780" type="line"/>
      <point x="161" y="780" type="line"/>
      <point x="152" y="739" type="line"/>
      <point x="161" y="737" type="line" smooth="yes"/>
      <point x="212" y="726"/>
      <point x="237" y="717"/>
      <point x="233" y="698" type="curve" smooth="yes"/>
    </contour>
  </outline>
</glyph>
<glyph name="z" format="2">
  <advance width="577"/>
  <unicode hex="007A"/>
  <outline>
    <contour>
      <point x="371" y="-13" type="curve"/>
      <point x="459" y="-13"/>
      <point x="525" y="52"/>
      <point x="520" y="205" type="curve"/>
      <point x="493" y="214" type="line"/>
      <point x="476" y="78"/>
      <point x="441" y="42"/>
      <point x="367" y="42" type="curve" smooth="yes"/>
      <point x="288" y="42"/>
      <point x="237" y="108"/>
      <point x="190" y="174" type="curve"/>
      <point x="187" y="169"/>
      <point x="169" y="166"/>
      <point x="168" y="156" type="curve"/>
      <point x="228" y="53"/>
      <point x="283" y="-13"/>
    </contour>
    <contour>
      <point x="282" y="520" type="curve" smooth="yes"/>
      <point x="493" y="520" type="line"/>
      <point x="479" y="527" type="line"/>
      <point x="24" y="34" type="line"/>
      <point x="14" y="0" type="line"/>
      <point x="52" y="0" type="line"/>
      <point x="524" y="511" type="line"/>
      <point x="537" y="565" type="line"/>
      <point x="131" y="565" type="line"/>
      <point x="88" y="390" type="line"/>
      <point x="128" y="390" type="line"/>
      <point x="158" y="477" type="line" smooth="yes"/>
      <point x="171" y="514"/>
      <point x="206" y="520"/>
    </contour>
  </outline>
</glyph>
<glyph name="multiply" format="2">
  <advance width="560"/>
  <unicode hex="00D7"/>
  <guideline x="98" y="303" angle="90" identifier="Rl62xeR2mB"/>
  <guideline x="462" y="250" angle="90" identifier="AfQ7eATCC6"/>
  <outline>
    <contour>
      <point x="462" y="193" type="line"/>
      <point x="132" y="521" type="line"/>
      <point x="98" y="487" type="line"/>
      <point x="428" y="159" type="line"/>
    </contour>
    <contour>
      <point x="132" y="159" type="line"/>
      <point x="462" y="487" type="line"/>
      <point x="428" y="521" type="line"/>
      <point x="98" y="193" type="line"/>
    </contour>
  </outline>
</glyph>
<glyph name="oslash" format="2">
  <advance width="608"/>
  <unicode hex="00F8"/>
  <outline>
    <contour>
      <point x="8" y="-3.0" type="line"/>
      <point x="671" y="565.0" type="line"/>
      <point x="611" y="565.0" type="line"/>
      <point x="-52" y="-3.0" type="line"/>
    </contour>
    <contour>
      <point x="100" y="208" type="curve" smooth="yes"/>
      <point x="100" y="338"/>
      <point x="154" y="529"/>
      <point x="338" y="529" type="curve" smooth="yes"/>
      <point x="465" y="529"/>
      <point x="508" y="480"/>
      <point x="508" y="354" type="curve"/>
      <point x="508" y="229"/>
      <point x="454" y="33"/>
      <point x="270" y="33" type="curve" smooth="yes"/>
      <point x="143" y="33"/>
      <point x="100" y="82"/>
    </contour>
    <contour>
      <point x="564" y="354" type="curve" smooth="yes"/>
      <point x="564" y="489"/>
      <point x="484" y="575"/>
      <point x="342" y="575" type="curve" smooth="yes"/>
      <point x="122" y="575"/>
      <point x="44" y="357"/>
      <point x="44" y="208" type="curve" smooth="yes"/>
      <point x="44" y="73"/>
      <point x="124" y="-13"/>
      <point x="266" y="-13" type="curve" smooth="yes"/>
      <point x="486" y="-13"/>
      <point x="564" y="205"/>
    </contour>
  </outline>
</glyph>
<glyph name="schwa" format="2">
  <advance width="550"/>
  <unicode hex="0259"/>
  <outline>
    <contour>
      <point x="296" y="529" type="curve" smooth="yes"/>
      <point x="387" y="529"/>
      <point x="450" y="482"/>
      <point x="450" y="361" type="curve" smooth="yes"/>
      <point x="450" y="193"/>
      <point x="362" y="34"/>
      <point x="206" y="34" type="curve" smooth="yes"/>
      <point x="136" y="34"/>
      <point x="98" y="61"/>
      <point x="98" y="126" type="curve" smooth="yes"/>
      <point x="98" y="229"/>
      <point x="195" y="291"/>
      <point x="462" y="303" type="curve"/>
      <point x="464" y="338" type="line"/>
      <point x="186" y="330"/>
      <point x="44" y="252"/>
      <point x="44" y="124" type="curve" smooth="yes"/>
      <point x="44" y="43"/>
      <point x="97" y="-12"/>
      <point x="206" y="-12" type="curve" smooth="yes"/>
      <point x="382" y="-12"/>
      <point x="506" y="158"/>
      <point x="506" y="361" type="curve" smooth="yes"/>
      <point x="506.0" y="493.0"/>
      <point x="427" y="575"/>
      <point x="298" y="575" type="curve" smooth="yes"/>
      <point x="186" y="575"/>
      <point x="111" y="519"/>
      <point x="69" y="456" type="curve"/>
      <point x="105" y="429" type="line"/>
      <point x="145" y="483"/>
      <point x="196" y="529"/>
    </contour>
  </outline>
</glyph>
<glyph name="infinity" format="2">
  <advance width="802"/>
  <unicode hex="221E"/>
  <outline>
    <contour>
      <point x="381" y="331" type="curve" smooth="yes"/>
      <point x="340" y="433"/>
      <point x="315" y="511"/>
      <point x="219" y="511" type="curve" smooth="yes"/>
      <point x="137.0" y="511.0"/>
      <point x="98" y="453"/>
      <point x="98" y="353" type="curve" smooth="yes"/>
      <point x="98" y="260"/>
      <point x="137" y="199"/>
      <point x="229" y="199" type="curve" smooth="yes"/>
      <point x="326" y="199"/>
      <point x="358" y="267"/>
      <point x="382" y="343" type="curve"/>
      <point x="409" y="342" type="line"/>
      <point x="390" y="240"/>
      <point x="337" y="149"/>
      <point x="231" y="149" type="curve" smooth="yes"/>
      <point x="120.0" y="149.0"/>
      <point x="56" y="236"/>
      <point x="56" y="353" type="curve" smooth="yes"/>
      <point x="56" y="473"/>
      <point x="128" y="561"/>
      <point x="237" y="561" type="curve" smooth="yes"/>
      <point x="353.0" y="561.0"/>
      <point x="385" y="466"/>
      <point x="420" y="379" type="curve" smooth="yes"/>
      <point x="461" y="277"/>
      <point x="487" y="199"/>
      <point x="583" y="199" type="curve" smooth="yes"/>
      <point x="665.0" y="199.0"/>
      <point x="704" y="259"/>
      <point x="704" y="358" type="curve" smooth="yes"/>
      <point x="704.0" y="450.0"/>
      <point x="664" y="511"/>
      <point x="575" y="511" type="curve" smooth="yes"/>
      <point x="478" y="511"/>
      <point x="443" y="443"/>
      <point x="419" y="367" type="curve"/>
      <point x="392" y="368" type="line"/>
      <point x="411" y="470"/>
      <point x="467" y="561"/>
      <point x="573" y="561" type="curve" smooth="yes"/>
      <point x="684.0" y="561.0"/>
      <point x="746" y="474"/>
      <point x="746" y="358" type="curve" smooth="yes"/>
      <point x="746.0" y="239.0"/>
      <point x="674" y="149"/>
      <point x="565" y="149" type="curve" smooth="yes"/>
      <point x="449.0" y="149.0"/>
      <point x="416" y="244"/>
    </contour>
  </outline>
</glyph>
<glyph name="approxequal" format="2">
  <advance width="560"/>
  <unicode hex="2248"/>
  <outline>
    <contour>
      <point x="179" y="471" type="curve" smooth="yes"/>
      <point x="247.0" y="471.0"/>
      <point x="266" y="348"/>
      <point x="370" y="348" type="curve" smooth="yes"/>
      <point x="447" y="348"/>
      <point x="489" y="399"/>
      <point x="510" y="509" type="curve"/>
      <point x="463" y="522" type="line"/>
      <point x="450" y="462"/>
      <point x="435" y="397"/>
      <point x="374" y="397" type="curve" smooth="yes"/>
      <point x="298" y="397"/>
      <point x="286" y="520"/>
      <point x="184" y="520" type="curve" smooth="yes"/>
      <point x="107" y="520"/>
      <point x="65" y="469"/>
      <point x="44" y="359" type="curve"/>
      <point x="91" y="346" type="line"/>
      <point x="104" y="406"/>
      <point x="119" y="471"/>
    </contour>
    <contour>
      <point x="179" y="212" type="curve" smooth="yes"/>
      <point x="247.0" y="212.0"/>
      <point x="266" y="89"/>
      <point x="370" y="89" type="curve" smooth="yes"/>
      <point x="447" y="89"/>
      <point x="489" y="140"/>
      <point x="510" y="250" type="curve"/>
      <point x="463" y="263" type="line"/>
      <point x="450" y="203"/>
      <point x="435" y="138"/>
      <point x="374" y="138" type="curve" smooth="yes"/>
      <point x="298" y="138"/>
      <point x="286" y="261"/>
      <point x="184" y="261" type="curve" smooth="yes"/>
      <point x="107" y="261"/>
      <point x="65" y="210"/>
      <point x="44" y="100" type="curve"/>
      <point x="91" y="87" type="line"/>
      <point x="104" y="147"/>
      <point x="119" y="212"/>
    </contour>
  </outline>
</glyph>
<glyph name="notequal" format="2">
  <advance width="560"/>
  <unicode hex="2260"/>
  <guideline x="60" y="161" angle="90.0" identifier="kwrxmEme7g"/>
  <guideline x="450" y="144" angle="90.0" identifier="2P34MkiRUL"/>
  <outline>
    <contour>
      <point x="505" y="618.0" type="line"/>
      <point x="2" y="39.0" type="line"/>
      <point x="55" y="39.0" type="line"/>
      <point x="558" y="618.0" type="line"/>
    </contour>
    <component base="equal"/>
  </outline>
</glyph>
<glyph name="f_k" format="2">
  <advance width="1040"/>
  <outline>
    <contour>
      <point x="48" y="565" type="line"/>
      <point x="48" y="521" type="line"/>
      <point x="382" y="521" type="line"/>
      <point x="382" y="565" type="line"/>
    </contour>
    <contour>
      <point x="559" y="730" type="line"/>
      <point x="546" y="754"/>
      <point x="473" y="790"/>
      <point x="377" y="790" type="curve" smooth="yes"/>
      <point x="251" y="790"/>
      <point x="164" y="756"/>
      <point x="164" y="643" type="curve" smooth="yes"/>
      <point x="164" y="116" type="line" smooth="yes"/>
      <point x="164" y="56"/>
      <point x="131" y="40"/>
      <point x="72" y="40" type="curve" smooth="yes"/>
      <point x="48" y="40" type="line"/>
      <point x="48" y="0" type="line"/>
      <point x="330" y="0" type="line"/>
      <point x="330" y="40" type="line"/>
      <point x="304" y="40" type="line" smooth="yes"/>
      <point x="273" y="40"/>
      <point x="214" y="43"/>
      <point x="214" y="50" type="curve" smooth="yes"/>
      <point x="214" y="641" type="line" smooth="yes"/>
      <point x="214" y="717"/>
      <point x="266" y="742"/>
      <point x="377" y="742" type="curve" smooth="yes"/>
      <point x="481" y="742"/>
      <point x="550" y="714"/>
      <point x="559" y="704" type="curve"/>
    </contour>
    <contour>
      <point x="1013" y="0" type="line"/>
      <point x="1013" y="40" type="line"/>
      <point x="999" y="40" type="line" smooth="yes"/>
      <point x="958" y="40"/>
      <point x="933" y="48"/>
      <point x="906" y="77" type="curve" smooth="yes"/>
      <point x="670" y="325" type="line"/>
      <point x="673" y="302" type="line"/>
      <point x="889" y="489" type="line" smooth="yes"/>
      <point x="922" y="518"/>
      <point x="943" y="525"/>
      <point x="981" y="525" type="curve" smooth="yes"/>
      <point x="992" y="525" type="line"/>
      <point x="992" y="565" type="line"/>
      <point x="763" y="565" type="line"/>
      <point x="763" y="525" type="line"/>
      <point x="774" y="525" type="line" smooth="yes"/>
      <point x="810" y="525"/>
      <point x="862" y="518"/>
      <point x="862" y="511" type="curve"/>
      <point x="630" y="307" type="line"/>
      <point x="630" y="297" type="line"/>
      <point x="863" y="50" type="line"/>
      <point x="863" y="44"/>
      <point x="820" y="40"/>
      <point x="789" y="40" type="curve" smooth="yes"/>
      <point x="781" y="40" type="line"/>
      <point x="781" y="0" type="line"/>
    </contour>
    <contour>
      <point x="657" y="0" type="line"/>
      <point x="657" y="40" type="line"/>
      <point x="652" y="40" type="line" smooth="yes"/>
      <point x="624" y="40"/>
      <point x="580" y="43"/>
      <point x="580" y="50" type="curve"/>
      <point x="580" y="780" type="line"/>
      <point x="438" y="780" type="line"/>
      <point x="529" y="736" type="line"/>
      <point x="529" y="50" type="line" smooth="yes"/>
      <point x="529.0" y="43.0"/>
      <point x="474" y="40"/>
      <point x="443" y="40" type="curve" smooth="yes"/>
      <point x="437" y="40" type="line"/>
      <point x="437" y="0" type="line"/>
    </contour>
  </outline>
</glyph>
<glyph name="minus.copy_1" format="2">
  <advance width="560"/>
  <outline>
    <contour>
      <point x="490" y="367" type="line"/>
      <point x="70" y="367" type="line"/>
      <point x="70" y="315" type="line"/>
      <point x="490" y="315" type="line"/>
    </contour>
  </outline>
</glyph>
<glyph name="ruble.proportional" format="2">
  <advance width="610"/>
  <guideline x="0" y="668" angle="0" identifier="JDbfJ1O57e"/>
  <guideline x="0" y="710" angle="0" identifier="Vy5DfNtnjg"/>
  <guideline x="0" y="387" angle="0" identifier="G0KCtImITM"/>
  <guideline x="0" y="347" angle="0" identifier="HtmagdxKXY"/>
  <outline>
    <contour>
      <point x="401" y="183" type="line"/>
      <point x="26" y="183" type="line"/>
      <point x="36" y="223" type="line"/>
      <point x="411" y="223" type="line"/>
    </contour>
    <contour>
      <point x="77" y="387" type="line"/>
      <point x="368" y="387" type="line" smooth="yes"/>
      <point x="489" y="387"/>
      <point x="553" y="443"/>
      <point x="553" y="555" type="curve" smooth="yes"/>
      <point x="553" y="626"/>
      <point x="512" y="668"/>
      <point x="421" y="668" type="curve" smooth="yes"/>
      <point x="293" y="668" type="line"/>
      <point x="139" y="52" type="line" smooth="yes"/>
      <point x="137" y="45"/>
      <point x="180" y="42"/>
      <point x="214" y="42" type="curve" smooth="yes"/>
      <point x="241" y="42" type="line"/>
      <point x="230" y="0" type="line"/>
      <point x="-20" y="0" type="line"/>
      <point x="-9" y="42" type="line"/>
      <point x="2" y="42" type="line" smooth="yes"/>
      <point x="51" y="42"/>
      <point x="89" y="49"/>
      <point x="96" y="78" type="curve" smooth="yes"/>
      <point x="234" y="632" type="line" smooth="yes"/>
      <point x="241" y="661"/>
      <point x="207" y="668"/>
      <point x="158" y="668" type="curve" smooth="yes"/>
      <point x="147" y="668" type="line"/>
      <point x="158" y="710" type="line"/>
      <point x="415" y="710" type="line" smooth="yes"/>
      <point x="544" y="710"/>
      <point x="605" y="648"/>
      <point x="605" y="555" type="curve" smooth="yes"/>
      <point x="605" y="429"/>
      <point x="510" y="347"/>
      <point x="365" y="347" type="curve" smooth="yes"/>
      <point x="67" y="347" type="line"/>
    </contour>
  </outline>
</glyph>
<glyph name="six.prop" format="2">
  <advance width="563"/>
  <guideline x="0" y="423" angle="0" identifier="QwzZHf6ODb"/>
  <guideline x="0" y="468" angle="0" identifier="dHqNRFO0ro"/>
  <guideline x="0" y="35" angle="0" identifier="D1gqrVWPE0"/>
  <guideline x="0" y="-10" angle="0" identifier="XW7QWwkdeS"/>
  <outline>
    <contour>
      <point x="564" y="695" type="line"/>
      <point x="252" y="685"/>
      <point x="93" y="475"/>
      <point x="93" y="210" type="curve" smooth="yes"/>
      <point x="93" y="94"/>
      <point x="154" y="35"/>
      <point x="258" y="35" type="curve" smooth="yes"/>
      <point x="395" y="35"/>
      <point x="453" y="159"/>
      <point x="453" y="291" type="curve" smooth="yes"/>
      <point x="453" y="364"/>
      <point x="415" y="423"/>
      <point x="324" y="423" type="curve" smooth="yes"/>
      <point x="223" y="423"/>
      <point x="171" y="365"/>
      <point x="80" y="238" type="curve"/>
      <point x="83" y="281" type="line"/>
      <point x="155" y="403"/>
      <point x="233" y="468"/>
      <point x="331" y="468" type="curve" smooth="yes"/>
      <point x="448" y="468"/>
      <point x="508" y="393"/>
      <point x="508" y="287" type="curve" smooth="yes"/>
      <point x="508" y="138"/>
      <point x="421" y="-10"/>
      <point x="255" y="-10" type="curve" smooth="yes"/>
      <point x="122" y="-10"/>
      <point x="41" y="65"/>
      <point x="41" y="210" type="curve" smooth="yes"/>
      <point x="41" y="486"/>
      <point x="219" y="729"/>
      <point x="560" y="740" type="curve"/>
    </contour>
  </outline>
</glyph>
<glyph name="slash.uc" format="2">
  <advance width="565"/>
  <guideline x="496" y="760" angle="0" identifier="UPAfWP31l4"/>
  <guideline x="296" y="-60" angle="0" identifier="9tMawnhkHR"/>
  <outline>
    <contour>
      <point x="564" y="760" type="line"/>
      <point x="96" y="-60" type="line"/>
      <point x="46" y="-60" type="line"/>
      <point x="514" y="760" type="line"/>
    </contour>
  </outline>
</glyph>
<glyph name="zero.linprop" format="2">
  <advance width="588"/>
  <outline>
    <contour>
      <point x="536" y="362" type="curve" smooth="yes"/>
      <point x="536" y="604"/>
      <point x="437" y="735"/>
      <point x="294" y="735" type="curve" smooth="yes"/>
      <point x="151" y="735"/>
      <point x="52" y="604"/>
      <point x="52" y="362" type="curve" smooth="yes"/>
      <point x="52" y="120"/>
      <point x="151" y="-11"/>
      <point x="294" y="-11" type="curve" smooth="yes"/>
      <point x="437" y="-11"/>
      <point x="536" y="120"/>
    </contour>
    <contour>
      <point x="108" y="362" type="curve" smooth="yes"/>
      <point x="108" y="573"/>
      <point x="166" y="692"/>
      <point x="294" y="692" type="curve" smooth="yes"/>
      <point x="422" y="692"/>
      <point x="480" y="573"/>
      <point x="480" y="362" type="curve" smooth="yes"/>
      <point x="480" y="151"/>
      <point x="422" y="32"/>
      <point x="294" y="32" type="curve" smooth="yes"/>
      <point x="166" y="32"/>
      <point x="108" y="151"/>
    </contour>
  </outline>
</glyph>
